<svg xmlns="http://www.w3.org/2000/svg" viewBox="7010.787 2291.301 78.06 94.282">
  <defs>
    <style>
      .cls-1 {
        fill: #b4b4b4;
      }

      .cls-2 {
        fill: rgba(255,255,255,0.5);
      }

      .cls-3 {
        fill: rgba(113,113,113,0.5);
      }
    </style>
  </defs>
  <g id="bouclier" transform="translate(5970 1445)">
    <path id="Tracé_29" data-name="Tracé 29" class="cls-1" d="M7010.918,2304.033l39.265-12.732,38.611,12.732s1.462,38.187-10.915,56a82.446,82.446,0,0,1-28.4,25.55s-20.3-13.448-26.42-25.55-11.843-29.056-12.138-41.221S7010.918,2304.033,7010.918,2304.033Z" transform="translate(-5970 -1445)"/>
    <path id="Tracé_30" data-name="Tracé 30" class="cls-2" d="M7010.909,2303.189l36.663-11.888,36.052,11.888s1.365,35.655-10.191,52.289a76.984,76.984,0,0,1-26.521,23.856s-18.956-12.556-24.669-23.856-11.058-27.13-11.334-38.489S7010.909,2303.189,7010.909,2303.189Z" transform="translate(-5967.413 -1441.593)"/>
    <path id="Tracé_31" data-name="Tracé 31" class="cls-3" d="M7010.9,2302.306l33.939-11,33.375,11s1.264,33.007-9.434,48.405a71.266,71.266,0,0,1-24.551,22.085s-17.548-11.624-22.836-22.085-10.236-25.115-10.492-35.63S7010.9,2302.306,7010.9,2302.306Z" transform="translate(-5964.707 -1438.205)"/>
  </g>
</svg>
