<svg xmlns="http://www.w3.org/2000/svg" xmlns:xlink="http://www.w3.org/1999/xlink" viewBox="1319.026 4520.083 345.649 397.728">
  <defs>
    <style>
      .cls-1 {
        fill: #66016d;
        stroke: #000;
        stroke-width: 10px;
      }

      .cls-2 {
        fill: #fff;
      }

      .cls-3 {
        filter: url(#Tracé_1);
      }
    </style>
    <filter id="Tracé_1" x="1319.026" y="4520.083" width="345.649" height="397.728" filterUnits="userSpaceOnUse">
      <feOffset dy="3" input="SourceAlpha"/>
      <feGaussianBlur stdDeviation="3" result="blur"/>
      <feFlood flood-opacity="0.161"/>
      <feComposite operator="in" in2="blur"/>
      <feComposite in="SourceGraphic"/>
    </filter>
  </defs>
  <g id="faux_logo" data-name="faux logo" transform="translate(167 4255)">
    <g class="cls-3" transform="matrix(1, 0, 0, 1, -167, -4255)">
      <path id="Tracé_1-2" data-name="Tracé 1" class="cls-1" d="M6197.992,174.791,6038.11,264.948V456.705l159.881,86.372,157.768-86.372V264.948Z" transform="translate(-4705.08 4357.04)"/>
    </g>
    <path id="Tracé_8" data-name="Tracé 8" class="cls-2" d="M4208.941,2031.736H4259.7s24.741,4.08,12.319-14.182-54.915-68.806-54.915-68.806v-38.23s7.845-6.6,10.08-8.382c-4.729-.065-37.468,0-42.866,0,4.406,2.444,10.955,8.382,10.955,8.382v38.23l-55.778,63.7s-18.683,18.948,4.3,19.293" transform="translate(-2879.566 -1493.252)"/>
    <ellipse id="Ellipse_12" data-name="Ellipse 12" class="cls-2" cx="5.521" cy="5.427" rx="5.521" ry="5.427" transform="translate(1337.039 350.866)"/>
    <ellipse id="Ellipse_13" data-name="Ellipse 13" class="cls-2" cx="12.697" cy="12.482" rx="12.697" ry="12.482" transform="translate(1311.645 372.574)"/>
  </g>
</svg>
