<svg xmlns="http://www.w3.org/2000/svg" xmlns:xlink="http://www.w3.org/1999/xlink" viewBox="267.137 7675.656 374.621 431.789">
  <defs>
    <style>
      .cls-1, .cls-3 {
        fill: #8b035c;
      }

      .cls-1 {
        stroke: #000;
        stroke-width: 10px;
      }

      .cls-2 {
        fill: #fff;
      }

      .cls-4 {
        fill: none;
        stroke: #8b035c;
        stroke-width: 5px;
      }

      .cls-5 {
        filter: url(#Tracé_1);
      }
    </style>
    <filter id="Tracé_1" x="267.137" y="7675.656" width="374.621" height="431.789" filterUnits="userSpaceOnUse">
      <feOffset dy="3" input="SourceAlpha"/>
      <feGaussianBlur stdDeviation="3" result="blur"/>
      <feFlood flood-opacity="0.161"/>
      <feComposite operator="in" in2="blur"/>
      <feComposite in="SourceGraphic"/>
    </filter>
  </defs>
  <g id="faux_logo" data-name="faux logo" transform="translate(-205 7419)">
    <g class="cls-5" transform="matrix(1, 0, 0, 1, 205, -7419)">
      <path id="Tracé_1-2" data-name="Tracé 1" class="cls-1" d="M6212.572,174.791l-174.463,98.495v209.49l174.463,94.36,172.158-94.36V273.286Z" transform="translate(-5756.97 7512.62)"/>
    </g>
    <rect id="Rectangle_25" data-name="Rectangle 25" class="cls-2" width="118.07" height="130.433" transform="translate(600.438 460.446)"/>
    <ellipse id="Ellipse_8" data-name="Ellipse 8" class="cls-2" cx="121.082" cy="90.118" rx="121.082" ry="90.118" transform="translate(538.993 347.45)"/>
    <ellipse id="Ellipse_10" data-name="Ellipse 10" class="cls-3" cx="31.71" cy="32.308" rx="31.71" ry="32.308" transform="translate(683.569 406.737)"/>
    <path id="Tracé_7" data-name="Tracé 7" class="cls-3" d="M4179.08,10647.438l12.191-20.215,10.982,20.215h-20.637" transform="translate(-3531.559 -10140.776)"/>
    <line id="Segment_10" data-name="Segment 10" class="cls-4" y1="66.402" transform="translate(629.955 523.535)"/>
    <line id="Segment_11" data-name="Segment 11" class="cls-4" y1="66.402" transform="translate(649.232 523.535)"/>
    <line id="Segment_12" data-name="Segment 12" class="cls-4" y1="66.402" transform="translate(668.509 523.535)"/>
    <line id="Segment_13" data-name="Segment 13" class="cls-4" y1="66.402" transform="translate(687.786 523.535)"/>
    <ellipse id="Ellipse_11" data-name="Ellipse 11" class="cls-3" cx="31.71" cy="32.308" rx="31.71" ry="32.308" transform="translate(565.498 406.737)"/>
  </g>
</svg>
